#!OML:ASF I:\Actors\actors\Patient Classification 1\Patient 1\Session 1\Subject1.ASF
:FULLY-SPECIFIED
:DEGREES
1411
root 0.122429 17.6873 7.15057 20.9107 1.343 -9.15738
lowerback 15.118 2.66767 8.65209
upperback 9.25989 4.50437 4.99939
thorax 1.69808 2.43746 -0.163102
lowerneck 6.85405 -15.9828 -8.17368
upperneck 25.8992 -24.6344 14.3459
head 10.1108 -11.2561 4.30922
rclavicle 5.88403e-014 4.45278e-014
rhumerus 65.3821 -27.368 -145.718
rradius 15.5301
rwrist 8.42727
rhand 15.4495 313.803
rfingers 7.12502
rthumb 40.2746 -431.34
lclavicle 5.88403e-014 4.45278e-014
lhumerus -19.647 -57.8669 93.7875
lradius 75.8032
lwrist 1.0519
lhand -15.1834 -11.2783
lfingers 7.12502
lthumb 10.9878 18.4142
rfemur -25.7328 21.774 17.3326
rtibia 7.2365
rfoot -8.65226 -26.5413
rtoes 3.17516
lfemur -26.7407 -53.6229 15.5377
ltibia -2.76051
lfoot -37.6138 63.0712
ltoes 23.668
1412
root 0.138338 17.6854 7.14811 20.9974 1.33873 -8.93542
lowerback 15.0816 2.56412 8.53953
upperback 9.11879 4.36979 5.37756
thorax 1.51492 2.34747 0.304788
lowerneck 6.84738 -15.9472 -8.36537
upperneck 26.0399 -24.5972 14.2516
head 10.171 -11.2469 4.30682
rclavicle 4.85035e-014 5.00937e-014
rhumerus 65.6282 -27.6711 -146.354
rradius 15.503
rwrist 7.65379
rhand 14.1058 317.793
rfingers 7.12502
rthumb 39.0093 -427.724
lclavicle 4.85035e-014 5.00937e-014
lhumerus -19.9633 -57.5923 94.4673
lradius 75.7208
lwrist 0.876839
lhand -15.2849 -11.2163
lfingers 7.12502
lthumb 10.89 18.4813
rfemur -25.8925 21.8011 16.9195
rtibia 7.28699
rfoot -8.60992 -26.7196
rtoes 3.03057
lfemur -26.9031 -53.3806 15.2834
ltibia -2.74299
lfoot -36.8684 62.9739
ltoes 23.4998
1413
root 0.154255 17.6853 7.14694 21.0521 1.30577 -8.71652
lowerback 15.0728 2.46207 8.69027
upperback 9.00369 4.26726 5.61134
thorax 1.38559 2.28971 0.475353
lowerneck 6.79769 -15.9321 -8.38804
upperneck 26.1002 -24.6008 14.2748
head 10.2096 -11.2378 4.31335
rclavicle 4.77083e-015 -1.59028e-014
rhumerus 65.8411 -27.9561 -146.844
rradius 15.6058
rwrist 6.53154
rhand 13.6811 320.206
rfingers 7.12502
rthumb 38.6087 -425.425
lclavicle 4.77083e-015 -1.59028e-014
lhumerus -20.231 -57.5519 94.9
lradius 75.7007
lwrist 0.720708
lhand -15.4755 -11.3797
lfingers 7.12502
lthumb 10.7061 18.3275
rfemur -26.0225 21.9238 16.4973
rtibia 7.36412
rfoot -8.74174 -26.934
rtoes 3.23383
lfemur -27.0095 -53.234 15.0017
ltibia -2.71742
lfoot -36.4245 62.8761
ltoes 23.4322
1414
root 0.171829 17.6859 7.14823 21.0945 1.21409 -8.44381
lowerback 15.071 2.43645 8.98367
upperback 8.86541 4.2828 5.72759
thorax 1.25653 2.29816 0.429538
lowerneck 6.81274 -16.0644 -7.98005
upperneck 26.0611 -24.7148 14.0517
head 10.121 -11.2671 4.1737
rclavicle 2.14687e-014 4.69132e-014
rhumerus 66.4765 -28.5206 -147.81
rradius 15.8236
rwrist 5.66406
rhand 13.662 321.303
rfingers 7.12502
rthumb 38.5908 -424.333
lclavicle 2.14687e-014 4.69132e-014
lhumerus -20.5117 -57.9094 95.2986
lradius 75.6563
lwrist 0.720678
lhand -15.4575 -11.6519
lfingers 7.12502
lthumb 10.7235 18.0544
rfemur -26.1046 22.0429 16.017
rtibia 7.4056
rfoot -8.86048 -27.118
rtoes 3.44773
lfemur -27.0723 -53.2068 14.6357
ltibia -2.69865
lfoot -36.2215 62.8574
ltoes 23.4755
1415
root 0.191743 17.6859 7.15082 21.1751 1.09388 -8.09467
lowerback 15.016 2.37162 9.10022
upperback 8.73785 4.22033 5.92075
thorax 1.14049 2.26007 0.573659
lowerneck 6.70135 -16.1168 -7.78782
upperneck 26.1497 -24.7684 13.9025
head 10.1338 -11.268 4.08245
rclavicle 3.81667e-014 5.40694e-014
rhumerus 67.254 -29.0382 -149.199
rradius 15.9549
rwrist 5.09519
rhand 13.1408 322.104
rfingers 7.12502
rthumb 38.0988 -423.669
lclavicle 3.81667e-014 5.40694e-014
lhumerus -20.7886 -58.0165 95.7833
lradius 75.6364
lwrist 0.800115
lhand -15.15 -11.7237
lfingers 7.12502
lthumb 11.0201 17.967
rfemur -26.2201 22.0529 15.4429
rtibia 7.43055
rfoot -8.96079 -27.2303
rtoes 3.74749
lfemur -27.108 -52.9844 14.0921
ltibia -2.67524
lfoot -35.6294 62.7156
ltoes 23.3697
1416
root 0.212552 17.6857 7.15455 21.2355 0.994268 -7.80658
lowerback 14.9533 2.25203 9.15798
upperback 8.64036 4.07769 6.24105
thorax 1.04268 2.17806 0.895811
lowerneck 6.70346 -15.9937 -8.1294
upperneck 26.1122 -24.7276 14.3604
head 10.2279 -11.2443 4.2871
rclavicle -1.59028e-015 -7.95139e-015
rhumerus 67.8419 -29.4004 -150.515
rradius 16.0907
rwrist 4.49229
rhand 11.6405 322.871
rfingers 7.12502
rthumb 36.6806 -423.275
lclavicle -1.59028e-015 -7.95139e-015
lhumerus -21.0621 -57.8439 96.3371
lradius 75.6303
lwrist 0.893761
lhand -14.9388 -11.6601
lfingers 7.12502
lthumb 11.2238 18.0197
rfemur -26.3111 22.0908 14.9492
rtibia 7.4557
rfoot -9.10489 -27.3721
rtoes 3.91218
lfemur -27.0807 -52.7217 13.5618
ltibia -2.64593
lfoot -35.0936 62.4489
ltoes 23.3493
1417
root 0.233706 17.6851 7.15941 21.3139 0.876658 -7.55063
lowerback 14.8939 2.17958 9.27657
upperback 8.5047 4.0084 6.56918
thorax 0.911598 2.13259 1.1828
lowerneck 6.78281 -15.9273 -8.36358
upperneck 26.0183 -24.7387 14.7709
head 10.2735 -11.2452 4.4641
rclavicle 6.20208e-014 8.74653e-014
rhumerus 68.5842 -29.8591 -151.872
rradius 16.2629
rwrist 4.06822
rhand 9.4534 323.28
rfingers 7.12502
rthumb 34.6077 -423.367
lclavicle 6.20208e-014 8.74653e-014
lhumerus -21.3781 -57.8253 96.9625
lradius 75.5792
lwrist 0.961728
lhand -14.6985 -11.6712
lfingers 7.12502
lthumb 11.4555 17.9958
rfemur -26.4251 22.2073 14.4565
rtibia 7.46341
rfoot -9.22655 -27.5774
rtoes 3.85784
lfemur -27.0268 -52.3332 13.0013
ltibia -2.58595
lfoot -34.3811 62.1131
ltoes 23.2832
1418
root 0.254974 17.6848 7.1649 21.4271 0.685386 -7.24083
lowerback 14.8636 2.1327 9.30035
upperback 8.3124 3.97205 6.89501
thorax 0.697774 2.09727 1.51115
lowerneck 6.70965 -15.9372 -8.35561
upperneck 26.132 -24.7575 14.6707
head 10.3163 -11.2414 4.4208
rclavicle -3.18055e-014 -9.85972e-014
rhumerus 69.7709 -30.4869 -153.788
rradius 16.2271
rwrist 4.233
rhand 7.26393 323.764
rfingers 7.12502
rthumb 32.5269 -423.335
lclavicle -3.18055e-014 -9.85972e-014
lhumerus -21.8572 -57.8615 97.7458
lradius 75.5112
lwrist 0.791949
lhand -14.6376 -11.5801
lfingers 7.12502
lthumb 11.5143 18.0836
rfemur -26.5908 22.4121 13.8358
rtibia 7.4659
rfoot -9.36647 -27.8181
rtoes 3.87287
lfemur -26.9968 -51.936 12.3959
ltibia -2.54814
lfoot -33.6398 61.8955
ltoes 23.087
1419
root 0.277665 17.6841 7.1708 21.5187 0.477214 -6.9352
lowerback 14.9014 2.0804 9.34078
upperback 8.07732 3.94613 7.21138
thorax 0.404785 2.06524 1.81502
lowerneck 6.64541 -15.9758 -8.14039
upperneck 26.2281 -24.7476 14.3247
head 10.2805 -11.2249 4.27253
rclavicle 2.54444e-014 6.04305e-014
rhumerus 70.3534 -31.1883 -155.035
rradius 16.5152
rwrist 3.62069
rhand 5.52655 324.623
rfingers 7.12502
rthumb 30.8721 -422.803
lclavicle 2.54444e-014 6.04305e-014
lhumerus -22.5048 -57.9549 98.6293
lradius 75.4802
lwrist 0.477419
lhand -14.8456 -11.4875
lfingers 7.12502
lthumb 11.3137 18.1874
rfemur -26.7203 22.7395 13.1845
rtibia 7.43014
rfoot -9.49137 -28.153
rtoes 3.88272
lfemur -26.9426 -51.6646 11.8269
ltibia -2.57861
lfoot -32.9663 61.8275
ltoes 22.781
1420
root 0.302979 17.6833 7.17968 21.6314 0.293644 -6.59572
lowerback 14.873 2.072 9.53787
upperback 7.81118 3.99032 7.42728
thorax 0.136298 2.07514 1.92066
lowerneck 6.60146 -16.1028 -7.84524
upperneck 26.3411 -24.9202 14.2159
head 10.3016 -11.2692 4.17199
rclavicle 0 -3.18055e-015
rhumerus 68.5568 -31.4674 -152.589
rradius 18.1686
rwrist -0.490871
rhand 3.98631 324.628
rfingers 7.12502
rthumb 29.4026 -423.066
lclavicle 0 -3.18055e-015
lhumerus -23.1338 -58.3724 99.445
lradius 75.4591
lwrist 0.356227
lhand -14.3883 -11.6373
lfingers 7.12502
lthumb 11.7546 18.0129
rfemur -26.8545 23.0067 12.4937
rtibia 7.39043
rfoot -9.62577 -28.467
rtoes 4.0805
lfemur -26.9522 -51.4783 11.2889
ltibia -2.61677
lfoot -32.2022 61.8155
ltoes 22.3447
